PathFileType	4	(X/Y/Z)	
DataRate	CameraRate	NumFrames	NumMarkers	Units	OrigDataRate	OrigDataStartFrame	OrigNumFrames
100	100	5	41	m	100	41	110
Frame#	Time	LELB			LSHO			RSHO			LUPA			LBHD			RUPA			RBHD			C7			RWRB			LWRB			RELB			RBAK			LANK			LKNE			LPSI			T10			LBTO			RPSI			RKNE			LTIB			RTIB			LTHI			RBTO			RTOE			RANK			RHEE			RTHI			LHEE			LFRM			LWRA			RFRM			LFIN			RFIN			RFHD			RWRA			RASI			LTOE			STRN			CLAV			LASI			LFHD			
		X1	Y1	Z1	X2	Y2	Z2	X3	Y3	Z3	X4	Y4	Z4	X5	Y5	Z5	X6	Y6	Z6	X7	Y7	Z7	X8	Y8	Z8	X9	Y9	Z9	X10	Y10	Z10	X11	Y11	Z11	X12	Y12	Z12	X13	Y13	Z13	X14	Y14	Z14	X15	Y15	Z15	X16	Y16	Z16	X17	Y17	Z17	X18	Y18	Z18	X19	Y19	Z19	X20	Y20	Z20	X21	Y21	Z21	X22	Y22	Z22	X23	Y23	Z23	X24	Y24	Z24	X25	Y25	Z25	X26	Y26	Z26	X27	Y27	Z27	X28	Y28	Z28	X29	Y29	Z29	X30	Y30	Z30	X31	Y31	Z31	X32	Y32	Z32	X33	Y33	Z33	X34	Y34	Z34	X35	Y35	Z35	X36	Y36	Z36	X37	Y37	Z37	X38	Y38	Z38	X39	Y39	Z39	X40	Y40	Z40	X41	Y41	Z41	X42	Y42	Z42	X43	Y43	Z43	

42	0.41	0.559846313476563	1.18543310546875	-1.05424774883865	0.475657135009766	1.52039147949219	-1.10048645733475	0.0971413040161133	1.51272924804688	-1.13769489239334	0.52302587890625	1.37722717285156	-1.08621765850662	0.360258972167969	1.65387963867188	-1.12330030010818	0.0208273963928223	1.25215869140625	-1.15728565167068	0.211261535644531	1.66113818359375	-1.13184052227615	0.285735412597656	1.55665563964844	-1.18214203594803	0.0120341386795044	0.887128540039062	-1.10316852520584	0.546873901367187	0.913629089355469	-0.993177894102324	0.00130866122245789	1.15772961425781	-1.15010828350662	0.150398864746094	1.45407580566406	-1.23002613018631	0.357355224609375	0.0695750350952149	-1.3145070261824	0.417346496582031	0.516661682128906	-1.19282111309646	0.324248504638672	1.09336071777344	-1.2240523753035	0.309340301513672	1.27609204101563	-1.25036945294021	0.310611724853516	0.0336454124450684	-1.10661945294021	0.256354125976562	1.08949145507812	-1.22319483135818	0.149667098999023	0.515198120117187	-0.965423316465605	0.416228546142578	0.359546539306641	-1.232211554991	0.141520935058594	0.355662139892578	-0.933812110410918	0.441949859619141	0.672854675292969	-1.14371167706131	0.163503204345703	0.136619400024414	-0.633703559385527	0.157839080810547	0.11230403137207	-0.687480353819121	0.190242752075195	0.0821367492675781	-0.83976276348709	0.247140274047852	0.0311543674468994	-0.87070822857498	0.126115501403809	0.672095092773437	-0.993777503477324	0.326767578125	0.0402969703674317	-1.38444824932693	0.534734069824219	0.958401611328125	-0.960987830625762	0.484116607666016	0.930246704101563	-0.951102942930449	0.00598597621917725	0.940880920410156	-1.079135383116	0.514458190917969	0.861061828613281	-0.893675483213652	0.0115520753860474	0.810923828125	-1.0080148386824	0.214715484619141	1.73465710449219	-0.998740241514433	0.0573326835632324	0.904071228027344	-1.04072363995193	0.168614013671875	1.05369128417969	-1.0425802683699	0.339076293945313	0.03596630859375	-1.16247144268631	0.290059600830078	1.28851428222656	-1.01302057598709	0.281054321289062	1.42064184570313	-1.0345172190535	0.428233093261719	1.050056640625	-1.05187335919021	0.341616882324219	1.72763073730469	-0.988491218076933
43	0.42	0.559760375976562	1.183462890625	-1.05176958024611	0.475044158935547	1.51801477050781	-1.09902366960158	0.0965153427124023	1.51004309082031	-1.13623942887892	0.522464660644531	1.37495153808594	-1.08436778581252	0.359549743652344	1.65146337890625	-1.1220809816133	0.0205447654724121	1.249455078125	-1.15610136735549	0.210488998413086	1.65857202148438	-1.13054558122267	0.285134033203125	1.55408679199219	-1.18071159684767	0.0117573022842407	0.884156311035156	-1.10338670671096	0.546230590820313	0.912208557128906	-0.98834187638869	0.00103933000564575	1.15500354003906	-1.14915996110549	0.149860244750977	1.45142797851562	-1.2285800050508	0.357289764404297	0.0701996459960938	-1.32599217546096	0.4173203125	0.515064270019531	-1.19606114518752	0.324014953613281	1.09057531738281	-1.22236723649611	0.308853302001953	1.27359741210937	-1.24883317887892	0.310425994873047	0.0336754837036133	-1.1187216066133	0.256067962646484	1.08688598632813	-1.22153386247267	0.149849624633789	0.512013061523438	-0.964637011886737	0.416305023193359	0.358733062744141	-1.2378544191133	0.141422149658203	0.354586120605469	-0.925644885421893	0.442214294433594	0.670977233886719	-1.14490343034377	0.164974304199219	0.148040878295898	-0.616830661178729	0.158827407836914	0.12177001953125	-0.669467730880877	0.190264190673828	0.085337890625	-0.820856128097674	0.246955993652344	0.0323411979675293	-0.849321795822284	0.122283615112305	0.667049987792969	-0.997409137130877	0.326823028564453	0.0418908386230469	-1.39615880143752	0.534148742675781	0.957310424804688	-0.956604480148455	0.483480346679688	0.929436828613281	-0.946479968429705	0.00568672704696655	0.937769958496094	-1.07915373551955	0.513692932128906	0.860914306640625	-0.888298205734393	0.0113191947937012	0.807422912597656	-1.00872896134963	0.21395686340332	1.73223571777344	-0.997518542648455	0.0569722175598145	0.900799255371094	-1.04089909684767	0.168271759033203	1.05079211425781	-1.04070482194533	0.338930694580078	0.0360990180969239	-1.17415672624221	0.289691711425781	1.286021484375	-1.01154115617385	0.280619049072266	1.41812646484375	-1.03310515153517	0.427934326171875	1.04740869140625	-1.04997679460158	0.340839935302734	1.72528063964844	-0.987257129074237
44	0.43	0.559584716796875	1.18140478515625	-1.04936746145826	0.474367858886719	1.51560437011719	-1.0976125176106	0.0958454895019531	1.50737341308594	-1.13476382376295	0.521958435058594	1.37265747070312	-1.0827066948567	0.358762542724609	1.64902038574219	-1.12072317434888	0.020238582611084	1.24673132324219	-1.15473446585279	0.209661392211914	1.65601867675781	-1.12922250296216	0.284497985839844	1.5514931640625	-1.17902957083326	0.011404149055481	0.881199462890625	-1.10342105032545	0.545559387207031	0.910724792480469	-0.983791014925055	0.00075767457485199	1.15226342773438	-1.14801699759107	0.149266891479492	1.44880419921875	-1.22711526419263	0.357244262695313	0.0712953262329102	-1.33728915335279	0.417319183349609	0.5135361328125	-1.19891171194654	0.323769683837891	1.08782580566406	-1.22061617971998	0.30838525390625	1.271068359375	-1.24724313284498	0.310390045166016	0.0335808753967285	-1.13065347220045	0.255901916503906	1.08436218261719	-1.21989132620435	0.149910217285156	0.5095068359375	-0.962858733430915	0.416246948242187	0.358091827392578	-1.2432511894856	0.141065338134766	0.354376831054687	-0.917402709260993	0.442438110351562	0.669093322753906	-1.14578762747388	0.167050674438477	0.157444686889648	-0.603035842195563	0.160494277954102	0.129615524291992	-0.654556105867438	0.190683776855469	0.0878013229370117	-0.805338561311774	0.247196578979492	0.0332589263916016	-0.831393096223884	0.12055623626709	0.662486083984375	-0.999379149690681	0.326953674316406	0.0437073554992676	-1.40783627249342	0.5335615234375	0.956120483398437	-0.952456511751227	0.482853485107422	0.928538757324219	-0.942041075960212	0.00539245748519897	0.934703796386719	-1.07896304251295	0.512968933105469	0.860622497558594	-0.883204589143805	0.0111298961639404	0.803925415039063	-1.00928683401685	0.213155349731445	1.72981884765625	-0.996290740266852	0.0565665168762207	0.897506225585938	-1.04094528128248	0.167924011230469	1.04803100585937	-1.03886373831373	0.33876904296875	0.0357266731262207	-1.1862389214192	0.289237579345703	1.28353857421875	-1.01001776053052	0.280077911376953	1.41567126464844	-1.03162515188795	0.427639007568359	1.04464233398438	-1.0479543144856	0.340044067382813	1.72296105957031	-0.98597680594068
45	0.44	0.55930322265625	1.17934533691406	-1.04698792567822	0.473647796630859	1.51322387695312	-1.09621723476025	0.0951247940063477	1.50475354003906	-1.13327173915478	0.5215361328125	1.37045593261719	-1.08124335780712	0.357917358398438	1.64661511230469	-1.11938087001416	0.0198911800384521	1.24402282714844	-1.15321558681103	0.208797393798828	1.65350512695313	-1.12788910976025	0.28368798828125	1.54885388183594	-1.17731391444775	0.0109976825714111	0.878319274902344	-1.10324085536572	0.544845642089844	0.909210266113281	-0.979550669818843	0.000479689389467239	1.14953625488281	-1.14670868983837	0.148620071411133	1.4462333984375	-1.22562964931103	0.357397308349609	0.0729245071411133	-1.34846399989697	0.41736279296875	0.512190612792969	-1.20100489345166	0.323532653808594	1.08518115234375	-1.21881128993603	0.307988525390625	1.26862976074219	-1.24561060634228	0.310343414306641	0.0333875999450684	-1.14263257899853	0.255759918212891	1.08195654296875	-1.21826154628369	0.150015029907227	0.507577178955078	-0.959968241840327	0.416258148193359	0.357412414550781	-1.24836457362744	0.141103454589844	0.354819641113281	-0.909711497455562	0.442527618408203	0.667097229003906	-1.14634437099072	0.169524429321289	0.164621932983398	-0.592343188434566	0.162580581665039	0.135382568359375	-0.642894702106441	0.191410491943359	0.089479965209961	-0.792899333148921	0.247704345703125	0.0340499420166016	-0.818065135150874	0.12081078338623	0.65950439453125	-0.998186167865718	0.327023254394531	0.046148853302002	-1.41942884364697	0.532961120605469	0.954870422363281	-0.948542338520015	0.482235931396484	0.927551147460937	-0.937812785297359	0.00509434700012207	0.931734924316406	-1.07854798427197	0.512354309082031	0.860170959472656	-0.878415049701656	0.0109857120513916	0.800491088867188	-1.00964255824658	0.212317047119141	1.72742834472656	-0.995030314594234	0.0562560348510742	0.894349975585938	-1.04082764735791	0.167516510009766	1.04549499511719	-1.03710935512158	0.338609649658203	0.03543461227417	-1.19836188808056	0.28869091796875	1.28108264160156	-1.00844587245556	0.279467529296875	1.41322021484375	-1.03012842860791	0.427544860839844	1.04199047851563	-1.04581476893994	0.339215484619141	1.72067211914063	-0.984710307270015
46	0.45	0.558883911132813	1.17739025878906	-1.04462898926341	0.472892456054687	1.5109365234375	-1.09480370239818	0.0943368148803711	1.50220910644531	-1.13176372437083	0.521122314453125	1.36837817382813	-1.07980876831615	0.357061889648437	1.64433923339844	-1.11807689575755	0.0195075855255127	1.24134912109375	-1.15158385376537	0.207893951416016	1.65109045410156	-1.12653642944896	0.282923675537109	1.54644702148438	-1.17569560913646	0.0105882005691528	0.875532287597656	-1.10283116821849	0.544093322753906	0.907683898925781	-0.975632376714584	0.000206757724285126	1.14685266113281	-1.14526860718333	0.147945999145508	1.44373864746094	-1.22413872437083	0.357311126708984	0.0745236511230469	-1.35978124146068	0.417408630371094	0.510822448730469	-1.20255681519115	0.323317352294922	1.08264086914063	-1.21683440308177	0.307676605224609	1.26632104492187	-1.24394866089427	0.310266326904297	0.0332706489562989	-1.15459233765208	0.255598403930664	1.07967211914063	-1.21667021851146	0.150250930786133	0.506146759033203	-0.956383505864975	0.416249694824219	0.356785095214844	-1.25306243042552	0.142088653564453	0.355175537109375	-0.903513693853256	0.442456451416016	0.665112548828125	-1.14655443482005	0.172112716674805	0.168706344604492	-0.584942767186996	0.164910293579102	0.138506958007813	-0.634802863164779	0.192720916748047	0.0899303131103516	-0.784436331792709	0.248600296020508	0.0345269508361817	-0.809622733159897	0.12208812713623	0.658423767089844	-0.994586447759506	0.327035003662109	0.0489431686401368	-1.43097106079662	0.532357238769531	0.953579650878906	-0.944861838384506	0.481638458251953	0.926452697753906	-0.933840476079818	0.00478662443161011	0.928851623535156	-1.07792540649974	0.511888122558594	0.859537841796875	-0.873961142583725	0.0108692789077759	0.797171081542969	-1.00975850586497	0.211390884399414	1.72513513183594	-0.99373351196849	0.0560840721130371	0.891232238769531	-1.04058559326732	0.167081115722656	1.04327087402344	-1.03548009399974	0.338515045166016	0.0353077621459961	-1.21036595825755	0.288038970947266	1.27869274902344	-1.00682128052318	0.278796813964844	1.41083703613281	-1.02856890015208	0.427354278564453	1.039564453125	-1.04360372070872	0.338322265625	1.71851062011719	-0.983399619146225
